<?xml version="1.0" encoding="utf-8"?>
<!-- Generator: Adobe Illustrator 18.1.0, SVG Export Plug-In . SVG Version: 6.00 Build 0)  -->
<!DOCTYPE svg PUBLIC "-//W3C//DTD SVG 1.1//EN" "http://www.w3.org/Graphics/SVG/1.1/DTD/svg11.dtd">
<svg version="1.1" id="Layer_1" xmlns="http://www.w3.org/2000/svg" xmlns:xlink="http://www.w3.org/1999/xlink" x="0px" y="0px"
	 viewBox="-26 0 670.3 900" enable-background="new -26 0 670.3 900" xml:space="preserve">
<g>
	<g>
		<g>
			<rect x="69.6" y="502.7" fill="#929084" width="85.5" height="85.5"/>
		</g>
		<path fill="#FF5000" d="M155.2,407.2c0,0-79.2,0-85.5,0c0,6.3,0,85.5,0,85.5h85.5L155.2,407.2L155.2,407.2z"/>
		<path fill="#929084" d="M250.8,407.2c0,0-79.2,0-85.5,0c0,6.3,0,85.5,0,85.5h85.5V407.2z"/>
		<path fill="#8A7277" d="M70.1,406.7c0.2,0.1,0.5,0.3,0.7,0.5c-0.2,0-0.5,0-0.7,0C70.1,407.1,70.1,406.8,70.1,406.7z"/>
		<rect x="69.6" y="311.7" fill="#929084" width="85.5" height="85.5"/>
		<g>
			<g>
				<circle fill="#929084" cx="47.9" cy="420.1" r="12.9"/>
				<circle fill="#929084" cx="21.3" cy="420.1" r="10.4"/>
				<circle fill="#929084" cx="-1.1" cy="420.1" r="8.3"/>
				<circle fill="#929084" cx="-19.4" cy="420.1" r="6.6"/>
			</g>
			<g>
				<circle fill="#929084" cx="47.9" cy="479.8" r="12.9"/>
				<circle fill="#929084" cx="21.3" cy="479.8" r="10.4"/>
				<circle fill="#929084" cx="-1.1" cy="479.8" r="8.3"/>
				<circle fill="#929084" cx="-19.4" cy="479.8" r="6.6"/>
			</g>
			<g>
				<circle fill="#929084" cx="47.9" cy="449.9" r="12.9"/>
				<circle fill="#929084" cx="21.3" cy="449.9" r="10.4"/>
				<circle fill="#929084" cx="-1.1" cy="449.9" r="8.3"/>
				<circle fill="#929084" cx="-19.4" cy="449.9" r="6.6"/>
			</g>
		</g>
	</g>
	<g>
		<path d="M358.4,405.1l-16.7-38.9l-0.1,0.1v38.9h-5.4v-47.5h7.6l16,38.5l0.1-0.1v-38.3h5.2v47.4H358.4z"/>
		<path d="M396.3,394.1c-0.7,9.4-6.2,11.7-11.2,11.7c-9.9,0-12.6-7.3-12.6-17.1c0-11,4.2-17.7,13.2-17.7c7.3,0,10.8,5.1,10.8,14.6
			c0,1.3-0.1,2.6-0.2,4h-18.1c0,6.8,1.4,11.8,7,11.8c3.8,0,5.8-2.2,6.3-7.6L396.3,394.1z M391.1,385.5c0.2-6.2-1.2-10.3-5.9-10.3
			c-5.1,0-6.6,4.8-6.8,10.3H391.1z"/>
		<path d="M399.8,371.7h3.8v-6.6l5.5-2v8.7h7.1v4.3h-7.1v19.1c0,4.3,0.8,6.2,4.3,6.2c1.4,0,2.8-0.2,3.8-0.7l0.5,4.3
			c-0.9,0.3-3.1,0.8-5.4,0.8c-6.6,0-8.7-3.6-8.7-10v-19.8h-3.8V371.7z"/>
		<path d="M427.5,405.1l-9-33.3h5.7l6.3,27h0.1l6.4-27h6.1l6.5,27h0.1l6.2-27h5.6l-8.7,33.3h-6.1l-6.5-26.7h-0.1l-6.4,26.7
			C433.7,405.1,427.5,405.1,427.5,405.1z"/>
		<path d="M464.1,388.4c0-11.5,5-17.4,12.9-17.4c8.4,0,12,5.7,12,16.8c0,12.1-4.1,18.1-12.7,18.1
			C467.4,405.9,464.1,399.8,464.1,388.4z M483.4,388.2c0-7.6-1.2-12.7-6.6-12.7s-6.9,5.2-6.9,12.8c0,7.8,1,13.2,6.8,13.2
			C482.2,401.5,483.4,396,483.4,388.2z"/>
		<path d="M510.5,382.7c0.5-5.6-0.7-7-3.3-7c-4.5,0-6.2,5.2-6.2,11.4v18.1h-5.5v-33.4h5l0.2,4.7h0.1c0.9-2.3,3.4-5.5,7.9-5.5
			c4.9,0,7.8,3.4,6.8,11.4L510.5,382.7z"/>
		<path d="M526,385.7l11.5-13.9h6.3l-10,11.8l11,21.6h-6.2l-8.6-17.2l-4,4.5v12.6h-5.5v-47.4h5.5L526,385.7L526,385.7z"/>
		<path d="M342.2,473.3h-5.8v-47.4h12.4c10.8,0,14.1,6.1,14.1,13.8c0,8.2-3.3,15.8-16.3,15.8h-4.3V473.3z M346,450.6
			c7.3,0,10.7-3.1,10.7-11c0-6.2-2.8-9.1-9-9.1h-5.6v19.9h3.8V450.6z"/>
		<path d="M391.3,473.3c-1.3,0.3-2.2,0.5-3.1,0.5c-3,0-4.3-1.6-4.7-4.1c-1.3,2.7-4.3,4.5-8.6,4.5c-6.8,0-9.2-4.4-9.2-9.1
			c0-8,6.6-9.8,17.2-10.7v-3c0-6.1-2.3-7.8-5.8-7.8c-4.4,0-5.4,2.4-5.4,5.4c0,0.9,0.1,2,0.2,2.9l-4.9,0.5c-0.2-1-0.3-2.2-0.3-3.1
			c0-5.7,3.4-9.9,11-9.9c10.1,0,10.7,7.8,10.7,15.8v12.5c0,1.5,0.3,2.2,1.5,2.2c0.3,0,0.8-0.1,1.4-0.2V473.3z M382.8,458.3
			c-9.3,0.5-11.5,2.4-11.5,6.4c0,2.8,1.6,5.2,5.1,5.2c3.5,0,6.4-2.8,6.4-6.5V458.3z"/>
		<path d="M413.4,451.6c-0.2-5.1-2-7.9-6.2-7.9c-5.2,0-7,4.7-7,13.2c0,8.2,1.6,12.8,7,12.8c4,0,5.5-2.2,6.1-7.5l4.9,0.3
			c-0.7,9.1-5.7,11.5-11.3,11.5c-9.8,0-12.6-7.5-12.6-16.9c0-11.4,4.3-17.9,13.2-17.9c8,0,10.6,5.5,10.8,12L413.4,451.6z"/>
		<path d="M429.4,453.9L441,440h6.3l-10,11.8l11,21.6H442l-8.6-17.2l-4,4.5v12.6h-5.5v-47.4h5.5V453.9z"/>
		<path d="M476.1,473.3c-1.3,0.3-2.2,0.5-3.1,0.5c-3,0-4.3-1.6-4.7-4.1c-1.3,2.7-4.3,4.5-8.6,4.5c-6.8,0-9.2-4.4-9.2-9.1
			c0-8,6.6-9.8,17.2-10.7v-3c0-6.1-2.3-7.8-5.8-7.8c-4.4,0-5.4,2.4-5.4,5.4c0,0.9,0.1,2,0.2,2.9l-4.9,0.5c-0.2-1-0.3-2.2-0.3-3.1
			c0-5.7,3.4-9.9,11-9.9c10.1,0,10.7,7.8,10.7,15.8v12.5c0,1.5,0.3,2.2,1.5,2.2c0.3,0,0.8-0.1,1.4-0.2V473.3z M467.8,458.3
			c-9.3,0.5-11.5,2.4-11.5,6.4c0,2.8,1.6,5.2,5.1,5.2c3.5,0,6.4-2.8,6.4-6.5V458.3z"/>
		<path d="M503.9,440v31.8c0,9.1-4.2,14-12.6,14c-4.7,0-9.8-1.9-10.7-8.7l5-0.8c0.6,3.3,2,5.1,5.8,5.1c4.4,0,7.1-2.2,7.1-9.1v-4.1
			h-0.1c-1,2.4-3.8,4.9-8.2,4.9c-5.8,0-10.8-3.5-10.8-15.7c0-13.1,4.7-18.2,11.8-18.2c3.7,0,6.2,1.6,7.5,4h0.1l0.9-3.3h4.2V440z
			 M492.1,443.5c-4.2,0-6.9,3.1-6.9,13.8c0,9.4,2.6,11.5,6.4,11.5c4.5,0,7-3.6,7-12.1C498.6,446.8,496.3,443.5,492.1,443.5z"/>
		<path d="M511.5,425.8h5.5v7h-5.5V425.8z M511.5,440h5.5v33.3h-5.5V440z"/>
		<path d="M548.2,473.3h-5.5v-21.6c0-5.1-1.4-7.9-5.5-7.9c-5.9,0-7.1,5.2-7.1,10.4v19.1h-5.5v-33.3h5l0.2,4.7h0.1
			c0.9-2.1,3.3-5.5,8.6-5.5c6.4,0,9.6,3.8,9.6,11.9V473.3z"/>
		<path d="M578.8,440v31.8c0,9.1-4.2,14-12.6,14c-4.7,0-9.8-1.9-10.7-8.7l5-0.8c0.6,3.3,2,5.1,5.8,5.1c4.4,0,7.1-2.2,7.1-9.1v-4.1
			h-0.1c-1,2.4-3.8,4.9-8.2,4.9c-5.8,0-10.8-3.5-10.8-15.7c0-13.1,4.7-18.2,11.8-18.2c3.7,0,6.2,1.6,7.5,4h0.1l0.9-3.3h4.2V440z
			 M567.1,443.5c-4.2,0-6.9,3.1-6.9,13.8c0,9.4,2.6,11.5,6.4,11.5c4.5,0,7-3.6,7-12.1C573.5,446.8,571.2,443.5,567.1,443.5z"/>
		<path d="M342.2,541.5h-5.8v-47.4h12.4c10.8,0,14.1,6.1,14.1,13.8c0,8.2-3.3,15.8-16.3,15.8h-4.3V541.5z M346,518.9
			c7.3,0,10.7-3.1,10.7-11c0-6.2-2.8-9.1-9-9.1h-5.6v20H346z"/>
		<path d="M391.3,541.4c-1.3,0.3-2.2,0.5-3.1,0.5c-3,0-4.3-1.6-4.7-4.1c-1.3,2.7-4.3,4.5-8.6,4.5c-6.8,0-9.2-4.4-9.2-9.1
			c0-8,6.6-9.8,17.2-10.7v-2.9c0-6.1-2.3-7.8-5.8-7.8c-4.4,0-5.4,2.4-5.4,5.4c0,0.9,0.1,2,0.2,2.9l-4.9,0.5c-0.2-1-0.3-2.2-0.3-3.1
			c0-5.7,3.4-9.9,11-9.9c10.1,0,10.7,7.8,10.7,15.8v12.5c0,1.5,0.3,2.2,1.5,2.2c0.3,0,0.8-0.1,1.4-0.2V541.4z M382.8,526.5
			c-9.3,0.5-11.5,2.4-11.5,6.4c0,2.8,1.6,5.2,5.1,5.2c3.5,0,6.4-2.8,6.4-6.5V526.5z"/>
		<path d="M411.6,519.2c0.5-5.6-0.7-7-3.3-7c-4.5,0-6.2,5.2-6.2,11.4v18.1h-5.5v-33.3h5l0.2,4.7h0.1c0.9-2.3,3.4-5.5,7.9-5.5
			c4.9,0,7.8,3.4,6.8,11.4L411.6,519.2z"/>
		<path d="M418.9,508.2h3.8v-6.8l5.5-2v8.7h7.1v4.3h-7.1v19.1c0,4.3,0.8,6.2,4.3,6.2c1.4,0,2.8-0.2,3.8-0.7l0.5,4.3
			c-0.9,0.3-3.1,0.8-5.4,0.8c-6.6,0-8.7-3.6-8.7-10v-19.7h-3.8V508.2z"/>
		<path d="M465.1,541.5h-5.5V520c0-5.1-1.4-7.9-5.5-7.9c-5.9,0-7.1,5.2-7.1,10.4v19.1h-5.5v-33.3h5l0.2,4.7h0.1
			c0.9-2.1,3.3-5.5,8.6-5.5c6.4,0,9.6,3.8,9.6,11.9L465.1,541.5L465.1,541.5z"/>
		<path d="M495,530.6c-0.7,9.4-6.2,11.7-11.2,11.7c-9.9,0-12.6-7.3-12.6-17.1c0-11,4.2-17.7,13.2-17.7c7.3,0,10.8,5.1,10.8,14.6
			c0,1.3-0.1,2.6-0.2,4h-17.9c0,6.8,1.4,11.9,7,11.9c3.8,0,5.8-2.2,6.3-7.6L495,530.6z M489.8,522c0.2-6.2-1.2-10.3-5.9-10.3
			c-5.1,0-6.6,4.8-6.8,10.3H489.8z"/>
		<path d="M516.8,519.2c0.5-5.6-0.7-7-3.3-7c-4.5,0-6.2,5.2-6.2,11.4v18.1h-5.5v-33.3h5l0.2,4.7h0.1c0.9-2.3,3.4-5.5,7.9-5.5
			c4.9,0,7.8,3.4,6.8,11.4L516.8,519.2z"/>
		<path d="M541.5,518.4c-0.3-4.3-1.6-6.6-5.7-6.6c-3.4,0-5.4,1.5-5.4,4.5c0,3.4,2.7,4.5,5.8,5.6c4.7,1.5,10.5,2.8,10.5,10.4
			c0,6.6-5,10-11.5,10c-6.9,0-10.7-3.3-11.1-10.5l5-0.6c0.5,4.5,1.7,6.9,6.3,6.9c4,0,5.8-2,5.8-5c0-4-3.3-5.1-6.9-6.3
			c-4.4-1.4-9.3-2.8-9.3-9.7c0-6.4,4.9-9.6,11-9.6c6.5,0,10,3.4,10.3,10.3L541.5,518.4z"/>
	</g>
</g>
</svg>
