<?xml version="1.0" encoding="utf-8"?>
<!-- Generator: Adobe Illustrator 18.1.0, SVG Export Plug-In . SVG Version: 6.00 Build 0)  -->
<!DOCTYPE svg PUBLIC "-//W3C//DTD SVG 1.1//EN" "http://www.w3.org/Graphics/SVG/1.1/DTD/svg11.dtd">
<svg version="1.1" id="Layer_1" xmlns="http://www.w3.org/2000/svg" xmlns:xlink="http://www.w3.org/1999/xlink" x="0px" y="0px"
	 viewBox="0 271.8 670 276.4" enable-background="new 0 271.8 670 276.4" xml:space="preserve">
<g>
	<g>
		<g>
			<rect x="95.6" y="462.7" fill="#929084" width="85.5" height="85.5"/>
		</g>
		<path fill="#FF5000" d="M181.1,367.2c0,0-79.2,0-85.5,0c0,6.3,0,85.5,0,85.5h85.5V367.2L181.1,367.2z"/>
		<path fill="#929084" d="M276.7,367.2c0,0-79.2,0-85.5,0c0,6.3,0,85.5,0,85.5h85.5V367.2z"/>
		<path fill="#8A7277" d="M96.1,366.7c0.2,0.1,0.5,0.3,0.7,0.5c-0.2,0-0.5,0-0.7,0C96.1,367.1,96.1,366.8,96.1,366.7z"/>
		<rect x="95.6" y="271.8" fill="#929084" width="85.5" height="85.5"/>
		<g>
			<g>
				<circle fill="#929084" cx="73.9" cy="380.1" r="12.9"/>
				<circle fill="#929084" cx="47.3" cy="380.1" r="10.4"/>
				<circle fill="#929084" cx="24.9" cy="380.1" r="8.3"/>
				<circle fill="#929084" cx="6.6" cy="380.1" r="6.6"/>
			</g>
			<g>
				<circle fill="#929084" cx="73.9" cy="439.8" r="12.9"/>
				<circle fill="#929084" cx="47.3" cy="439.8" r="10.4"/>
				<circle fill="#929084" cx="24.9" cy="439.8" r="8.3"/>
				<circle fill="#929084" cx="6.6" cy="439.8" r="6.6"/>
			</g>
			<g>
				<circle fill="#929084" cx="73.9" cy="409.9" r="12.9"/>
				<circle fill="#929084" cx="47.3" cy="409.9" r="10.4"/>
				<circle fill="#929084" cx="24.9" cy="409.9" r="8.3"/>
				<circle fill="#929084" cx="6.6" cy="409.9" r="6.6"/>
			</g>
		</g>
	</g>
	<g>
		<path d="M384.2,365.1l-16.7-38.9l-0.1,0.1v38.9H362v-47.5h7.6l16,38.5l0.1-0.1v-38.3h5.2v47.4L384.2,365.1L384.2,365.1z"/>
		<path d="M422.1,354.1c-0.7,9.4-6.2,11.7-11.2,11.7c-9.9,0-12.6-7.3-12.6-17.1c0-11,4.2-17.7,13.2-17.7c7.3,0,10.8,5.1,10.8,14.6
			c0,1.3-0.1,2.6-0.2,4H404c0,6.8,1.4,11.8,7,11.8c3.8,0,5.8-2.2,6.3-7.6L422.1,354.1z M416.9,345.5c0.2-6.2-1.2-10.3-5.9-10.3
			c-5.1,0-6.6,4.8-6.8,10.3H416.9z"/>
		<path d="M425.6,331.7h3.8v-6.6l5.5-2v8.7h7.1v4.3h-7.1v19.1c0,4.3,0.8,6.2,4.3,6.2c1.4,0,2.8-0.2,3.8-0.7l0.5,4.3
			c-0.9,0.3-3.1,0.8-5.4,0.8c-6.6,0-8.7-3.6-8.7-10V336h-3.8L425.6,331.7L425.6,331.7z"/>
		<path d="M453.3,365.1l-9-33.3h5.7l6.3,27h0.1l6.4-27h6.1l6.5,27h0.1l6.2-27h5.6l-8.7,33.3h-6.1l-6.5-26.7h-0.1l-6.4,26.7H453.3z"
			/>
		<path d="M489.9,348.4c0-11.5,5-17.4,12.9-17.4c8.4,0,12,5.7,12,16.8c0,12.1-4.1,18.1-12.7,18.1
			C493.2,365.9,489.9,359.8,489.9,348.4z M509.2,348.2c0-7.6-1.2-12.7-6.6-12.7s-6.9,5.2-6.9,12.8c0,7.8,1,13.2,6.8,13.2
			C508,361.5,509.2,356,509.2,348.2z"/>
		<path d="M536.3,342.7c0.5-5.6-0.7-7-3.3-7c-4.5,0-6.2,5.2-6.2,11.4v18.1h-5.5v-33.4h5l0.2,4.7h0.1c0.9-2.3,3.4-5.5,7.9-5.5
			c4.9,0,7.8,3.4,6.8,11.4L536.3,342.7z"/>
		<path d="M551.8,345.7l11.5-13.9h6.3l-10,11.8l11,21.6h-6.2l-8.6-17.2l-4,4.5v12.6h-5.5v-47.4h5.5V345.7L551.8,345.7z"/>
		<path d="M368,433.3h-5.8v-47.4h12.4c10.8,0,14.1,6.1,14.1,13.8c0,8.2-3.3,15.8-16.3,15.8h-4.3v17.8H368z M371.8,410.6
			c7.3,0,10.7-3.1,10.7-11c0-6.2-2.8-9.1-9-9.1h-5.6v19.9h3.8L371.8,410.6L371.8,410.6z"/>
		<path d="M417.1,433.3c-1.3,0.3-2.2,0.5-3.1,0.5c-3,0-4.3-1.6-4.7-4.1c-1.3,2.7-4.3,4.5-8.6,4.5c-6.8,0-9.2-4.4-9.2-9.1
			c0-8,6.6-9.8,17.2-10.7v-3c0-6.1-2.3-7.8-5.8-7.8c-4.4,0-5.4,2.4-5.4,5.4c0,0.9,0.1,2,0.2,2.9l-4.9,0.5c-0.2-1-0.3-2.2-0.3-3.1
			c0-5.7,3.4-9.9,11-9.9c10.1,0,10.7,7.8,10.7,15.8v12.5c0,1.5,0.3,2.2,1.5,2.2c0.3,0,0.8-0.1,1.4-0.2L417.1,433.3L417.1,433.3z
			 M408.6,418.3c-9.3,0.5-11.5,2.4-11.5,6.4c0,2.8,1.6,5.2,5.1,5.2c3.5,0,6.4-2.8,6.4-6.5V418.3z"/>
		<path d="M439.2,411.6c-0.2-5.1-2-7.9-6.2-7.9c-5.2,0-7,4.7-7,13.2c0,8.2,1.6,12.8,7,12.8c4,0,5.5-2.2,6.1-7.5l4.9,0.3
			c-0.7,9.1-5.7,11.5-11.3,11.5c-9.8,0-12.6-7.5-12.6-16.9c0-11.4,4.3-17.9,13.2-17.9c8,0,10.6,5.5,10.8,12L439.2,411.6z"/>
		<path d="M455.2,413.9l11.6-13.9h6.3l-10,11.8l11,21.6h-6.3l-8.6-17.2l-4,4.5v12.6h-5.5v-47.4h5.5V413.9z"/>
		<path d="M501.9,433.3c-1.3,0.3-2.2,0.5-3.1,0.5c-3,0-4.3-1.6-4.7-4.1c-1.3,2.7-4.3,4.5-8.6,4.5c-6.8,0-9.2-4.4-9.2-9.1
			c0-8,6.6-9.8,17.2-10.7v-3c0-6.1-2.3-7.8-5.8-7.8c-4.4,0-5.4,2.4-5.4,5.4c0,0.9,0.1,2,0.2,2.9l-4.9,0.5c-0.2-1-0.3-2.2-0.3-3.1
			c0-5.7,3.4-9.9,11-9.9c10.1,0,10.7,7.8,10.7,15.8v12.5c0,1.5,0.3,2.2,1.5,2.2c0.3,0,0.8-0.1,1.4-0.2L501.9,433.3L501.9,433.3z
			 M493.6,418.3c-9.3,0.5-11.5,2.4-11.5,6.4c0,2.8,1.6,5.2,5.1,5.2c3.5,0,6.4-2.8,6.4-6.5V418.3z"/>
		<path d="M529.7,400v31.8c0,9.1-4.2,14-12.6,14c-4.7,0-9.8-1.9-10.7-8.7l5-0.8c0.6,3.3,2,5.1,5.8,5.1c4.4,0,7.1-2.2,7.1-9.1v-4.1
			h-0.1c-1,2.4-3.8,4.9-8.2,4.9c-5.8,0-10.8-3.5-10.8-15.7c0-13.1,4.7-18.2,11.8-18.2c3.7,0,6.2,1.6,7.5,4h0.1l0.9-3.3L529.7,400
			L529.7,400L529.7,400z M517.9,403.5c-4.2,0-6.9,3.1-6.9,13.8c0,9.4,2.6,11.5,6.4,11.5c4.5,0,7-3.6,7-12.1
			C524.4,406.8,522.1,403.5,517.9,403.5z"/>
		<path d="M537.3,385.8h5.5v7h-5.5V385.8z M537.3,400h5.5v33.3h-5.5V400z"/>
		<path d="M573.9,433.3h-5.5v-21.6c0-5.1-1.4-7.9-5.5-7.9c-5.9,0-7.1,5.2-7.1,10.4v19.1h-5.5V400h5l0.2,4.7h0.1
			c0.9-2.1,3.3-5.5,8.6-5.5c6.4,0,9.6,3.8,9.6,11.9L573.9,433.3L573.9,433.3z"/>
		<path d="M604.5,400v31.8c0,9.1-4.2,14-12.6,14c-4.7,0-9.8-1.9-10.7-8.7l5-0.8c0.6,3.3,2,5.1,5.8,5.1c4.4,0,7.1-2.2,7.1-9.1v-4.1
			H599c-1,2.4-3.8,4.9-8.2,4.9c-5.8,0-10.8-3.5-10.8-15.7c0-13.1,4.7-18.2,11.8-18.2c3.7,0,6.2,1.6,7.5,4h0.1l0.9-3.3L604.5,400
			L604.5,400z M592.8,403.5c-4.2,0-6.9,3.1-6.9,13.8c0,9.4,2.6,11.5,6.4,11.5c4.5,0,7-3.6,7-12.1
			C599.2,406.8,596.9,403.5,592.8,403.5z"/>
		<path d="M368,501.5h-5.8v-47.4h12.4c10.8,0,14.1,6.1,14.1,13.8c0,8.2-3.3,15.8-16.3,15.8h-4.3v17.8H368z M371.8,478.9
			c7.3,0,10.7-3.1,10.7-11c0-6.2-2.8-9.1-9-9.1h-5.6v20L371.8,478.9L371.8,478.9z"/>
		<path d="M417.1,501.4c-1.3,0.3-2.2,0.5-3.1,0.5c-3,0-4.3-1.6-4.7-4.1c-1.3,2.7-4.3,4.5-8.6,4.5c-6.8,0-9.2-4.4-9.2-9.1
			c0-8,6.6-9.8,17.2-10.7v-2.9c0-6.1-2.3-7.8-5.8-7.8c-4.4,0-5.4,2.4-5.4,5.4c0,0.9,0.1,2,0.2,2.9l-4.9,0.5c-0.2-1-0.3-2.2-0.3-3.1
			c0-5.7,3.4-9.9,11-9.9c10.1,0,10.7,7.8,10.7,15.8v12.5c0,1.5,0.3,2.2,1.5,2.2c0.3,0,0.8-0.1,1.4-0.2L417.1,501.4L417.1,501.4z
			 M408.6,486.5c-9.3,0.5-11.5,2.4-11.5,6.4c0,2.8,1.6,5.2,5.1,5.2c3.5,0,6.4-2.8,6.4-6.5V486.5z"/>
		<path d="M437.4,479.2c0.5-5.6-0.7-7-3.3-7c-4.5,0-6.2,5.2-6.2,11.4v18.1h-5.5v-33.3h5l0.2,4.7h0.1c0.9-2.3,3.4-5.5,7.9-5.5
			c4.9,0,7.8,3.4,6.8,11.4L437.4,479.2z"/>
		<path d="M444.7,468.2h3.8v-6.8l5.5-2v8.7h7.1v4.3H454v19.1c0,4.3,0.8,6.2,4.3,6.2c1.4,0,2.8-0.2,3.8-0.7l0.5,4.3
			c-0.9,0.3-3.1,0.8-5.4,0.8c-6.6,0-8.7-3.6-8.7-10v-19.7h-3.8L444.7,468.2L444.7,468.2z"/>
		<path d="M490.9,501.5h-5.5V480c0-5.1-1.4-7.9-5.5-7.9c-5.9,0-7.1,5.2-7.1,10.4v19.1h-5.5v-33.3h5l0.2,4.7h0.1
			c0.9-2.1,3.3-5.5,8.6-5.5c6.4,0,9.6,3.8,9.6,11.9L490.9,501.5L490.9,501.5z"/>
		<path d="M520.8,490.6c-0.7,9.4-6.2,11.7-11.2,11.7c-9.9,0-12.6-7.3-12.6-17.1c0-11,4.2-17.7,13.2-17.7c7.3,0,10.8,5.1,10.8,14.6
			c0,1.3-0.1,2.6-0.2,4h-17.9c0,6.8,1.4,11.9,7,11.9c3.8,0,5.8-2.2,6.3-7.6L520.8,490.6z M515.6,482c0.2-6.2-1.2-10.3-5.9-10.3
			c-5.1,0-6.6,4.8-6.8,10.3H515.6z"/>
		<path d="M542.6,479.2c0.5-5.6-0.7-7-3.3-7c-4.5,0-6.2,5.2-6.2,11.4v18.1h-5.5v-33.3h5l0.2,4.7h0.1c0.9-2.3,3.4-5.5,7.9-5.5
			c4.9,0,7.8,3.4,6.8,11.4L542.6,479.2z"/>
		<path d="M567.2,478.4c-0.3-4.3-1.6-6.6-5.7-6.6c-3.4,0-5.4,1.5-5.4,4.5c0,3.4,2.7,4.5,5.8,5.6c4.7,1.5,10.5,2.8,10.5,10.4
			c0,6.6-5,10-11.5,10c-6.9,0-10.7-3.3-11.1-10.5l5-0.6c0.5,4.5,1.7,6.9,6.3,6.9c4,0,5.8-2,5.8-5c0-4-3.3-5.1-6.9-6.3
			c-4.4-1.4-9.3-2.8-9.3-9.7c0-6.4,4.9-9.6,11-9.6c6.5,0,10,3.4,10.3,10.3L567.2,478.4z"/>
	</g>
</g>
</svg>
