<?xml version="1.0" encoding="utf-8"?>
<!-- Generator: Adobe Illustrator 17.1.0, SVG Export Plug-In . SVG Version: 6.00 Build 0)  -->
<!DOCTYPE svg PUBLIC "-//W3C//DTD SVG 1.1//EN" "http://www.w3.org/Graphics/SVG/1.1/DTD/svg11.dtd">
<svg version="1.1" id="Layer_1" xmlns="http://www.w3.org/2000/svg" xmlns:xlink="http://www.w3.org/1999/xlink" x="0px" y="0px"
	 viewBox="0 0 55.1 30.8" enable-background="new 0 0 55.1 30.8" xml:space="preserve">
<path fill-rule="evenodd" clip-rule="evenodd" fill="none" stroke="#D6D6D6" stroke-width="0.5" stroke-miterlimit="10" d="
	M25.1,0.6h24.5c2.8,0,5,2.2,5,5v19.5c0,2.8-2.2,5-5,5H25.1c-2.8,0-5-2.2-5-5V5.6C20.1,2.9,22.4,0.6,25.1,0.6z"/>
<path fill-rule="evenodd" clip-rule="evenodd" fill="none" stroke="#D6D6D6" stroke-width="0.5" stroke-miterlimit="10" d="M0,0.6
	h5.1c2.8,0,5,2.2,5,5v19.5c0,2.8-2.2,5-5,5H0"/>
<g>
	<g>
		<path fill-rule="evenodd" clip-rule="evenodd" fill="#22A3A8" d="M37.4,11.3l4.4,4.3l1.5-1.4l-5.9-5.7l-5.9,5.7l1.5,1.4L37.4,11.3
			z M29.6,20.3v2h15.5v-2H29.6z"/>
	</g>
</g>
</svg>
