<?xml version="1.0" encoding="utf-8"?>
<!-- Generator: Adobe Illustrator 18.1.0, SVG Export Plug-In . SVG Version: 6.00 Build 0)  -->
<!DOCTYPE svg PUBLIC "-//W3C//DTD SVG 1.1//EN" "http://www.w3.org/Graphics/SVG/1.1/DTD/svg11.dtd">
<svg version="1.1" id="Layer_1" xmlns="http://www.w3.org/2000/svg" xmlns:xlink="http://www.w3.org/1999/xlink" x="0px" y="0px"
	 viewBox="0 0 200 200" enable-background="new 0 0 200 200" xml:space="preserve">
<g>
	<path d="M131.6,160H68.8c-4.7,0-8.5,3.8-8.5,8.5c0,4.7,3.8,8.5,8.5,8.5h62.8c4.7,0,8.5-3.8,8.5-8.5
		C140.1,163.8,136.3,160,131.6,160z"/>
	<path d="M119,181H81.4c-4.7,0-8.5,4.3-8.5,9c0,4.7,3.8,9,8.5,9H119c4.7,0,8.5-4.3,8.5-9C127.6,185.3,123.7,181,119,181z"/>
	<path d="M100,1.5C62.8,1.5,32.6,32.2,32.6,70c0,21.6,9.9,41.1,25.3,53.6c0.2,13.1,2.6,32.3,14.7,32.3h59c12,0,14.5-22.6,14.7-36.1
		c13-12.5,21.1-30.2,21.1-49.8C167.4,32.3,137.2,1.5,100,1.5z M139.4,112.6l-3,2.9l-0.1,4.3c-0.3,16.4-3.5,24.3-5.2,26.3
		c0,0-58.6,0-58.6,0c-1-1-4.4-6.5-4.7-22.5l-0.1-4.7l-3.6-3c-13.7-11.2-21.6-27.9-21.6-45.7c0-32.3,25.8-58.6,57.4-58.6
		c31.7,0,57.4,26.3,57.4,58.5C157.4,86.3,151,101.4,139.4,112.6z"/>
</g>
</svg>
