<?xml version="1.0" encoding="utf-8"?>
<!-- Generator: Adobe Illustrator 18.1.0, SVG Export Plug-In . SVG Version: 6.00 Build 0)  -->
<!DOCTYPE svg PUBLIC "-//W3C//DTD SVG 1.1//EN" "http://www.w3.org/Graphics/SVG/1.1/DTD/svg11.dtd">
<svg version="1.1" id="Layer_1" xmlns="http://www.w3.org/2000/svg" xmlns:xlink="http://www.w3.org/1999/xlink" x="0px" y="0px"
	 viewBox="0 0 57 58" enable-background="new 0 0 57 58" xml:space="preserve">
<g>
	<g>
		<path fill-rule="evenodd" clip-rule="evenodd" fill="#1CA3A6" d="M20.8,33.9c2.5-0.3,5.6-0.5,8.3-0.5c2.9,0,4.4,0.3,7.2,0.6
			c0,0,0-2.6,0-5.4c0-2.4,0.8-6.6,0.8-6.6c0-3.1-1.9-4.7-4.6-5.4c1-1.5,1.6-3.4,1.6-5.1C34,7.8,31.5,5,28.5,5S23,7.8,23,11.4
			c0,1.7,0.6,3.6,1.6,5c-2.7,0.7-4.5,2.3-4.5,5.5c0,0,0.8,4.5,0.8,7.1C20.8,31.7,20.8,33.9,20.8,33.9z M23.9,11.5
			c0-3,2.1-5.5,4.6-5.5s4.6,2.4,4.6,5.5c0,3-2.1,6.5-4.6,6.5S23.9,14.5,23.9,11.5z M25.2,17.3c0.9,1,2.1,1.7,3.3,1.7
			s2.4-0.7,3.3-1.7c2.5,0.6,4.2,2.1,4.2,5.1c0,0-0.7,3.9-0.7,6.1c0,2.6,0,4.5,0,4.5c-2.5-0.3-4.3-0.5-7-0.5c-2.4,0-4.3,0.2-6.6,0.5
			c0,0,0-1.5,0-4c0-2.4-0.7-6.5-0.7-6.5C21,19.4,22.7,17.9,25.2,17.3z M28.5,30.7c0,0,1.4-1.1,1.4-1.5l-0.7-7
			c0.2-0.1,0.3-0.4,0.3-0.6l0.4-1.5c0-0.4-0.3-0.7-0.7-0.7h-1.4c-0.4,0-0.7,0.3-0.7,0.7l0.4,1.5c0,0.3,0.1,0.5,0.3,0.6l-0.7,7
			C27.1,29.7,28.5,30.7,28.5,30.7z M49.9,15.2c0-0.4-0.3-0.7-0.7-0.7h-1.4c-0.4,0-0.7,0.3-0.7,0.7l0.4,1.5c0,0.3,0.1,0.5,0.3,0.6
			l-0.7,7c0,0.4,1.4,1.5,1.4,1.5s1.4-1.1,1.4-1.5l-0.7-7c0.2-0.1,0.3-0.4,0.3-0.6L49.9,15.2z M52.4,11.5c1-1.5,1.6-3.4,1.6-5.1
			C54,2.8,51.5,0,48.5,0S43,2.8,43,6.4c0,1.7,0.6,3.6,1.6,5c-2.7,0.7-4.5,2.3-4.5,5.5c0,0,0.8,4.5,0.8,7.1c0,2.7,0,4.9,0,4.9
			c2.5-0.3,5.6-0.5,8.3-0.5c2.9,0,4.4,0.3,7.2,0.6c0,0,0-2.6,0-5.4c0-2.4,0.8-6.6,0.8-6.6C57,13.8,55.1,12.2,52.4,11.5z M43.9,6.5
			c0-3,2.1-5.5,4.6-5.5s4.6,2.4,4.6,5.5c0,3-2.1,6.5-4.6,6.5S43.9,9.5,43.9,6.5z M55.3,23.5c0,2.6,0,4.5,0,4.5
			c-2.5-0.3-4.3-0.5-7-0.5c-2.4,0-4.3,0.2-6.6,0.5c0,0,0-1.5,0-4c0-2.4-0.7-6.5-0.7-6.5c0-3,1.7-4.5,4.2-5.1c0.9,1,2.1,1.7,3.3,1.7
			s2.4-0.7,3.3-1.7c2.5,0.6,4.2,2.1,4.2,5.1C56,17.4,55.3,21.2,55.3,23.5z M8.5,25.7c0,0,1.4-1.1,1.4-1.5l-0.7-7
			c0.2-0.1,0.3-0.4,0.3-0.6l0.4-1.5c0-0.4-0.3-0.7-0.7-0.7H7.8c-0.4,0-0.7,0.3-0.7,0.7l0.4,1.5c0,0.3,0.1,0.5,0.3,0.6l-0.7,7
			C7.1,24.7,8.5,25.7,8.5,25.7z M27.7,55.1l-4.4-4.3l-1.5,1.4l5.9,5.8l5.9-5.8l-1.5-1.4L27.7,55.1z M9.1,28.4c2.9,0,4.4,0.3,7.2,0.6
			c0,0,0-2.6,0-5.4c0-2.4,0.8-6.6,0.8-6.6c0-3.1-1.9-4.7-4.6-5.4c1-1.5,1.6-3.4,1.6-5.1C14,2.8,11.5,0,8.5,0S3,2.8,3,6.4
			c0,1.7,0.6,3.6,1.6,5C1.9,12.1,0,13.7,0,16.9c0,0,0.8,4.5,0.8,7.1c0,2.7,0,4.9,0,4.9C3.3,28.6,6.4,28.4,9.1,28.4z M3.9,6.5
			c0-3,2.1-5.5,4.6-5.5s4.6,2.4,4.6,5.5c0,3-2.1,6.5-4.6,6.5S3.9,9.5,3.9,6.5z M5.2,12.3c0.9,1,2.1,1.7,3.3,1.7s2.4-0.7,3.3-1.7
			c2.5,0.6,4.2,2.1,4.2,5.1c0,0-0.7,3.9-0.7,6.1c0,2.6,0,4.5,0,4.5c-2.5-0.3-4.3-0.5-7-0.5c-2.4,0-4.3,0.2-6.6,0.5c0,0,0-1.5,0-4
			c0-2.4-0.7-6.5-0.7-6.5C1,14.4,2.7,12.9,5.2,12.3z M5,46h45.5v-2H5V46z"/>
	</g>
</g>
</svg>
