<?xml version="1.0" encoding="utf-8"?>
<!-- Generator: Adobe Illustrator 18.1.0, SVG Export Plug-In . SVG Version: 6.00 Build 0)  -->
<!DOCTYPE svg PUBLIC "-//W3C//DTD SVG 1.1//EN" "http://www.w3.org/Graphics/SVG/1.1/DTD/svg11.dtd">
<svg version="1.1" id="Layer_1" xmlns="http://www.w3.org/2000/svg" xmlns:xlink="http://www.w3.org/1999/xlink" x="0px" y="0px"
	 viewBox="0 0 20 15" enable-background="new 0 0 20 15" xml:space="preserve">
<g>
	<g>
		<path fill-rule="evenodd" clip-rule="evenodd" fill="#22A3A8" d="M1.3,3h17.4C19.4,3,20,2.3,20,1.5S19.4,0,18.7,0H1.3
			C0.6,0,0,0.7,0,1.5S0.6,3,1.3,3z M18.7,6H1.3C0.6,6,0,6.7,0,7.5S0.6,9,1.3,9h17.4C19.4,9,20,8.3,20,7.5S19.4,6,18.7,6z M18.7,12
			H1.3C0.6,12,0,12.7,0,13.5S0.6,15,1.3,15h17.4c0.7,0,1.3-0.7,1.3-1.5S19.4,12,18.7,12z"/>
	</g>
</g>
</svg>
