<?xml version="1.0" encoding="utf-8"?>
<!-- Generator: Adobe Illustrator 18.1.1, SVG Export Plug-In . SVG Version: 6.00 Build 0)  -->
<!DOCTYPE svg PUBLIC "-//W3C//DTD SVG 1.1//EN" "http://www.w3.org/Graphics/SVG/1.1/DTD/svg11.dtd">
<svg version="1.1" id="Layer_1" xmlns="http://www.w3.org/2000/svg" xmlns:xlink="http://www.w3.org/1999/xlink" x="0px" y="0px"
	 viewBox="0 0 200 200" enable-background="new 0 0 200 200" xml:space="preserve">
<path fill-rule="evenodd" clip-rule="evenodd" fill="#BE4A27" d="M137.6,154.8c-14.6,0-27.8-5.7-37.6-14.9
	c-9.8,9.2-23.1,14.9-37.6,14.9c-30.3,0-54.9-24.5-54.9-54.8s24.6-54.8,54.9-54.8c14.6,0,27.8,5.7,37.6,14.9
	c9.8-9.2,23.1-14.9,37.6-14.9c30.3,0,54.9,24.5,54.9,54.8S167.9,154.8,137.6,154.8z M62.8,52.7C36.4,52.7,15,74,15,100.4
	c0,26.4,21.4,47.7,47.8,47.7c12.7,0,24.2-4.9,32.8-13c-8-9.5-12.8-21.8-12.8-35.2c0-13.2,4.7-25.3,12.4-34.7
	C86.7,57.4,75.3,52.7,62.8,52.7z M100.4,129.9c6.4-8.1,10.2-18.3,10.2-29.5c0-11.1-3.8-21.4-10.2-29.5C94,79,90.2,89.3,90.2,100.4
	C90.2,111.5,94,121.8,100.4,129.9z M138,52.7c-12.7,0-24.3,5-32.9,13.1c7.6,9.4,12.1,21.3,12.1,34.3c0,13.2-4.7,25.3-12.5,34.7
	c8.6,8.3,20.3,13.4,33.2,13.4c26.4,0,47.8-21.4,47.8-47.7S164.4,52.7,138,52.7z"/>
<path opacity="0.55" fill-rule="evenodd" clip-rule="evenodd" fill="#BE4A27" d="M100.2,69.9c7.5,0,13.7,14.2,13.7,31.8
	c0,17.5-6.1,31.8-13.7,31.8c-7.5,0-13.7-14.2-13.7-31.8C86.6,84.1,92.7,69.9,100.2,69.9z"/>
</svg>
