<?xml version="1.0" encoding="utf-8"?>
<!-- Generator: Adobe Illustrator 18.1.1, SVG Export Plug-In . SVG Version: 6.00 Build 0)  -->
<!DOCTYPE svg PUBLIC "-//W3C//DTD SVG 1.1//EN" "http://www.w3.org/Graphics/SVG/1.1/DTD/svg11.dtd">
<svg version="1.1" id="Layer_1" xmlns="http://www.w3.org/2000/svg" xmlns:xlink="http://www.w3.org/1999/xlink" x="0px" y="0px"
	 viewBox="0 0 200 200" enable-background="new 0 0 200 200" xml:space="preserve">
<path fill-rule="evenodd" clip-rule="evenodd" fill="#BE4A27" d="M184.2,86.3c0,8.3-10.6,15-23.8,15c-13.1,0-23.8-6.7-23.8-15
	c0-1.4,0.3-2.8,0.9-4.1h0.9c0-0.3,0-0.6,0.1-0.9L154,23.5L108.1,50v108.2H94.6V57.8L45.7,86c-0.2,0.1-0.5,0.2-0.8,0.3l16.5,61.5
	c0.1,0.3,0.1,0.6,0.1,0.9h0.9c0.6,1.3,0.9,2.6,0.9,4.1c0,8.3-10.6,14.9-23.8,14.9c-13.1,0-23.8-6.7-23.8-14.9c0-1.4,0.3-2.8,0.9-4.1
	h0.9c0-0.3,0-0.6,0.1-0.9l17.7-66l0-0.1c-0.2-0.7-0.1-1.5,0.3-2.1c0.2-2.2,1.4-4.2,3.4-5.4L154.3,7.7c3.2-1.9,7.4-0.8,9.3,2.5
	c0.5,0.9,0.8,1.9,0.9,2.9c0.4,0.6,0.5,1.4,0.3,2.1l0,0.1l17.7,66c0.1,0.3,0.1,0.6,0.1,0.9h0.9C183.9,83.5,184.2,84.8,184.2,86.3z
	 M25.8,148.8h27.4L39.5,97.6L25.8,148.8z M160.5,31l-13.7,51.2h27.4L160.5,31z M81.3,172.6c0,3.2-0.9,6.4-4.5,7.8l5.7,12.4h-5.9
	l-5-11.5h-1.8v11.5h-5.4v-28.1h8C78.6,164.7,81.3,167.6,81.3,172.6z M69.8,169.2v7.7h1.5c3,0,4.6-0.8,4.6-4.1c0-2.7-1.5-3.6-3.8-3.6
	H69.8z M86.8,168.6h-2.5v-3.9h10.4v3.9h-2.5v20.4h2.6v3.9H84.2v-3.9h2.5V168.6z M106.5,188.8c2.1,0,3.3-1.1,3.3-3.3
	c0-2.7-2.1-3.7-4.6-4.6c-3.4-1.3-7.6-2.7-7.6-8.5c0-5.3,3.8-8.1,8.9-8.1c5.2,0,8.1,2.7,8.5,8.6l-5.2,0.8c-0.2-3.6-1.3-5-3.5-5
	c-2.1,0-3.1,1.2-3.1,2.9c0,2.4,1.9,3.4,4.2,4.3c3.5,1.4,8,2.7,8,8.6c0,6-4,8.8-9,8.8c-5.9,0-8.8-2.8-9.3-8.9l5.5-0.7
	C102.8,187.3,103.8,188.8,106.5,188.8z M124.3,176.4l8.3-11.7h5.9l-8.3,11.4l8.2,16.7h-6l-5.9-11.6l-2.1,2.9v8.8h-5.4v-28.1h5.4
	V176.4z"/>
</svg>
