<?xml version="1.0" encoding="utf-8"?>
<!-- Generator: Adobe Illustrator 18.1.1, SVG Export Plug-In . SVG Version: 6.00 Build 0)  -->
<!DOCTYPE svg PUBLIC "-//W3C//DTD SVG 1.1//EN" "http://www.w3.org/Graphics/SVG/1.1/DTD/svg11.dtd">
<svg version="1.1" id="Layer_1" xmlns="http://www.w3.org/2000/svg" xmlns:xlink="http://www.w3.org/1999/xlink" x="0px" y="0px"
	 viewBox="0 0 200 200" enable-background="new 0 0 200 200" xml:space="preserve">
<path fill-rule="evenodd" clip-rule="evenodd" fill="#BE4A27" d="M192.4,101.6c-0.2,0.8-0.6,1.7-1.2,2.3c0,0-15.1,15.2-15.1,15.2
	c-1.7,1.7-4.4,1.8-6,0.2c-1.7-1.7-1.7-4,0-5.7l7.8-7.1H11.8c-2.4,0-4.3-2.1-4.3-4.5s1.9-4.5,4.3-4.5h166.2l-7.8-8.4
	c-1.7-1.7-1.7-4.9,0-6.6c1.7-1.7,4.4-1.7,6,0l15.1,15.1c0.1,0.1,0.2,0.2,0.3,0.3c0,0,0.1,0.1,0.1,0.2c0,0.1,0.1,0.1,0.1,0.2
	c0,0.1,0.1,0.1,0.1,0.2c0,0.1,0.1,0.1,0.1,0.2c0.1,0.2,0.2,0.4,0.3,0.6c0.2,0.4,0.3,0.9,0.3,1.4
	C192.5,101.1,192.5,101.4,192.4,101.6z M70.1,82.6c-2.5,3.4-4.1,7.3-5,11.3h-9.6c0.9-6,3.3-11.7,6.9-16.7
	c6.2-8.7,15.5-14.5,26.1-16.2c0.2,0,0.5-0.1,0.8-0.1c2.3,0,4.3,1.7,4.7,3.9c0.2,1.2-0.1,2.5-0.8,3.5c-0.7,1-1.8,1.7-3.1,1.9
	C81.9,71.5,74.8,75.9,70.1,82.6z M105,69.7c-0.5-1.2-0.4-2.5,0.1-3.6c0.8-1.7,2.5-2.8,4.3-2.8c0.7,0,1.3,0.1,1.9,0.4
	c12.3,5.4,21,16.6,23.2,29.8c0,0.1,0,0.2,0.1,0.3H125c-2-9.5-8.5-17.5-17.5-21.5C106.3,71.8,105.4,70.9,105,69.7z M95,84.5
	c6.4,0,11.9,3.8,14.3,9.3H80.7C83.1,88.4,88.6,84.5,95,84.5z M146.8,80.6c-4.1-10.6-11.2-19.5-20.7-25.8c-9.3-6.2-20-9.5-31.1-9.5
	c-6.7,0-13.3,1.2-19.6,3.6C58,55.4,45.1,70,41,88c-0.5,2.2-2.4,3.7-4.6,3.7c-0.3,0-0.7,0-1-0.1c-1.2-0.3-2.3-1-3-2.1
	c-0.7-1.1-0.9-2.3-0.6-3.6C36.6,64.9,51.6,47.7,72,40c7.4-2.8,15.1-4.2,22.9-4.2c13,0,25.6,3.8,36.4,11.1
	c11.1,7.4,19.5,17.9,24.2,30.3c2.1,5.4,3.4,11,3.9,16.6H150C149.5,89.4,148.4,84.9,146.8,80.6z M95,115.5c-4.6,0-8.7-2-11.5-5.1
	h21.7c0,0,0,0,0,0c-0.3,1.2-1.1,2.3-2.2,2.9C100.6,114.7,97.8,115.5,95,115.5z M120,117.4c1.6-2.2,2.8-4.6,3.7-7h10
	c-1.2,4.4-3.2,8.6-6,12.5c-6.2,8.7-15.5,14.5-26.1,16.2c-2.2,0.4-4.4,0.5-6.6,0.5c-9.4,0-18.5-3.3-25.7-9.3
	c-6.3-5.2-10.8-12.2-12.9-20h9.9c1.8,4.9,4.9,9.3,9,12.7c5.5,4.6,12.5,7.1,19.7,7.1c1.7,0,3.4-0.1,5-0.4
	C108.2,128.5,115.3,124.1,120,117.4z M37.2,116.7c0.5-0.2,1.1-0.3,1.7-0.3c2,0,3.7,1.2,4.4,3c4.1,10.6,11.2,19.4,20.6,25.8
	c9.2,6.2,20,9.4,31.1,9.4c0,0,0,0,0,0c6.7,0,13.3-1.1,19.6-3.5c13.9-5.2,24.8-15.5,30.9-28.9c1.7-3.8,3-7.8,3.8-11.8h9.6
	c-0.9,5.3-2.5,10.6-4.8,15.6c-7.1,15.8-19.9,27.8-36.2,33.9c-7.4,2.8-15.1,4.2-22.9,4.2h0c-13,0-25.6-3.8-36.4-11.1
	c-11.1-7.4-19.5-17.9-24.2-30.3c-0.5-1.2-0.4-2.5,0.1-3.6C35.1,118,36,117.1,37.2,116.7z"/>
</svg>
