<?xml version="1.0" encoding="utf-8"?>
<!-- Generator: Adobe Illustrator 18.1.1, SVG Export Plug-In . SVG Version: 6.00 Build 0)  -->
<!DOCTYPE svg PUBLIC "-//W3C//DTD SVG 1.1//EN" "http://www.w3.org/Graphics/SVG/1.1/DTD/svg11.dtd">
<svg version="1.1" id="Layer_1" xmlns="http://www.w3.org/2000/svg" xmlns:xlink="http://www.w3.org/1999/xlink" x="0px" y="0px"
	 viewBox="0 54.7 200 90" enable-background="new 0 54.7 200 90" xml:space="preserve">
<g>
	<g>
		<g>
			<rect x="38.7" y="113.3" fill="#849291" width="22.1" height="22.1"/>
		</g>
		<path fill="#037F99" d="M60.8,88.6c0,0-20.5,0-22.1,0c0,1.6,0,22.1,0,22.1h22.1C60.8,110.7,60.8,88.6,60.8,88.6z"/>
		<path fill="#849291" d="M85.6,88.6c0,0-20.5,0-22.1,0c0,1.6,0,22.1,0,22.1h22.1V88.6z"/>
		<path fill="#8A7277" d="M38.8,88.5c0.1,0,0.1,0.1,0.2,0.1c-0.1,0-0.1,0-0.2,0C38.8,88.5,38.8,88.5,38.8,88.5z"/>
		<rect x="38.7" y="63.9" fill="#849291" width="22.1" height="22.1"/>
		<g>
			<g>
				<circle fill="#037F99" cx="33" cy="91.9" r="3.3"/>
				<circle fill="#037F99" cx="26.1" cy="91.9" r="2.7"/>
				<circle fill="#037F99" cx="20.3" cy="91.9" r="2.1"/>
				<circle fill="#037F99" cx="15.6" cy="91.9" r="1.7"/>
			</g>
			<g>
				<circle fill="#037F99" cx="33" cy="107.4" r="3.3"/>
				<circle fill="#037F99" cx="26.1" cy="107.4" r="2.7"/>
				<circle fill="#037F99" cx="20.3" cy="107.4" r="2.1"/>
				<circle fill="#037F99" cx="15.6" cy="107.4" r="1.7"/>
			</g>
			<g>
				<circle fill="#037F99" cx="33" cy="99.7" r="3.3"/>
				<circle fill="#037F99" cx="26.1" cy="99.7" r="2.7"/>
				<circle fill="#037F99" cx="20.3" cy="99.7" r="2.1"/>
				<circle fill="#037F99" cx="15.6" cy="99.7" r="1.7"/>
			</g>
		</g>
	</g>
	<g enable-background="new    ">
		<path d="M112.8,78.9c-0.1-1.7-0.6-2.7-2-2.7c-1.2,0-1.9,0.7-1.9,1.9c0,1.3,0.8,1.8,1.9,2.2c1.6,0.6,3.5,1,3.5,3.7
			c0,2.3-1.5,3.6-3.6,3.6c-2.3,0-3.5-1.2-3.7-3.8l1.5-0.2c0.1,1.9,0.6,2.7,2.2,2.7c1.3,0,2-0.7,2-2.1c0-1.5-1-2-2.1-2.4
			c-1.5-0.5-3.4-1-3.4-3.6c0-2.2,1.5-3.3,3.5-3.3c2.1,0,3.2,1.3,3.3,3.8L112.8,78.9z"/>
		<path d="M115.9,78.8h1.4v5.4c0,1.4,0.3,2.1,1.3,2.1c1.5,0,1.8-1.5,1.8-2.8v-4.8h1.4v8.5h-1.2l-0.1-1.2h0c-0.2,0.5-0.8,1.4-2.2,1.4
			c-1.6,0-2.4-1-2.4-3.2V78.8z"/>
		<path d="M123.8,90.4V78.8h1.2l0.1,1h0c0.3-0.6,1.1-1.2,2.3-1.2c1.5,0,2.7,1.1,2.7,4.2c0,3.6-1.3,4.7-3,4.7c-0.9,0-1.6-0.4-1.9-1h0
			v3.8H123.8z M126.8,86.4c1.3,0,1.8-1.2,1.8-3.6c0-2.5-0.6-3.2-1.6-3.2c-1.2,0-1.8,1.1-1.8,3.3C125.1,85.6,125.7,86.4,126.8,86.4z"
			/>
		<path d="M131.7,90.4V78.8h1.2l0.1,1h0c0.3-0.6,1.1-1.2,2.3-1.2c1.5,0,2.7,1.1,2.7,4.2c0,3.6-1.3,4.7-3,4.7c-0.9,0-1.6-0.4-1.9-1h0
			v3.8H131.7z M134.8,86.4c1.3,0,1.8-1.2,1.8-3.6c0-2.5-0.6-3.2-1.6-3.2c-1.2,0-1.8,1.1-1.8,3.3C133.1,85.6,133.7,86.4,134.8,86.4z"
			/>
		<path d="M141.1,87.4h-1.4V75.2h1.4V87.4z"/>
		<path d="M145.9,87.5c-0.6,2.1-1.1,3.1-2.7,3.1c-0.4,0-0.9-0.1-1.1-0.2l0.2-1c0.3,0.1,0.5,0.1,0.8,0.1c0.8,0,1.1-0.5,1.4-1.8
			l0.1-0.4l-2.5-8.5h1.5l1.7,6.8h0l1.7-6.8h1.4L145.9,87.5z"/>
		<path d="M158.1,83.2l1.4,0.1c-0.1,3-1.4,4.2-3.6,4.2c-2.7,0-3.8-2-3.8-6.2c0-4.3,1.5-6.4,4.2-6.4c2.3,0,3.3,1.7,3.3,4.4l-1.4,0.1
			c0-2.4-0.7-3.2-2-3.2c-1.5,0-2.4,1.4-2.4,5c0,3.4,0.6,5,2.3,5C157.4,86.3,158,85.1,158.1,83.2z"/>
		<path d="M167.2,87.4h-1.4v-5.5c0-1.1-0.2-2-1.4-2c-1.5,0-1.8,1.3-1.8,2.7v4.9h-1.4V75.2h1.4V80c0.3-0.6,0.9-1.3,2.2-1.3
			c1.6,0,2.4,1,2.4,3.1V87.4z"/>
		<path d="M175.3,87.3c-0.3,0.1-0.6,0.1-0.8,0.1c-0.8,0-1.1-0.4-1.2-1.1c-0.3,0.7-1.1,1.2-2.2,1.2c-1.7,0-2.4-1.1-2.4-2.3
			c0-2.1,1.7-2.5,4.4-2.8v-0.7c0-1.6-0.6-2-1.5-2c-1.1,0-1.4,0.6-1.4,1.4c0,0.2,0,0.5,0,0.7l-1.3,0.1c0-0.3-0.1-0.6-0.1-0.8
			c0-1.5,0.9-2.5,2.8-2.5c2.6,0,2.7,2,2.7,4.1v3.2c0,0.4,0.1,0.6,0.4,0.6c0.1,0,0.2,0,0.3,0L175.3,87.3z M173.1,83.5
			c-2.4,0.1-3,0.6-3,1.6c0,0.7,0.4,1.3,1.3,1.3s1.6-0.7,1.6-1.7V83.5z"/>
		<path d="M176.7,75.2h1.4V77h-1.4V75.2z M176.7,78.8h1.4v8.5h-1.4V78.8z"/>
		<path d="M186.1,87.4h-1.4v-5.5c0-1.3-0.3-2-1.4-2c-1.5,0-1.8,1.4-1.8,2.7v4.9h-1.4v-8.5h1.3l0,1.2h0c0.2-0.5,0.8-1.4,2.2-1.4
			c1.7,0,2.4,1,2.4,3V87.4z"/>
	</g>
	<g enable-background="new    ">
		<path d="M112.8,96.4c-0.1-1.7-0.6-2.7-2-2.7c-1.2,0-1.9,0.7-1.9,1.9c0,1.3,0.8,1.8,1.9,2.2c1.6,0.6,3.5,1,3.5,3.7
			c0,2.3-1.5,3.6-3.6,3.6c-2.3,0-3.5-1.2-3.7-3.8l1.5-0.2c0.1,1.9,0.6,2.7,2.2,2.7c1.3,0,2-0.7,2-2.1c0-1.5-1-2-2.1-2.4
			c-1.5-0.5-3.4-1-3.4-3.6c0-2.2,1.5-3.3,3.5-3.3c2.1,0,3.2,1.3,3.3,3.8L112.8,96.4z"/>
		<path d="M121.7,102.1c-0.2,2.4-1.6,3-2.9,3c-2.5,0-3.2-1.9-3.2-4.4c0-2.8,1.1-4.5,3.4-4.5c1.9,0,2.8,1.3,2.8,3.8c0,0.3,0,0.7,0,1
			h-4.6c0,1.7,0.3,3,1.8,3c1,0,1.5-0.6,1.6-2L121.7,102.1z M120.4,99.8c0-1.6-0.3-2.6-1.5-2.6c-1.3,0-1.7,1.2-1.7,2.6H120.4z"/>
		<path d="M128,99.3c-0.1-1.3-0.5-2-1.6-2c-1.3,0-1.8,1.2-1.8,3.4c0,2.1,0.4,3.3,1.8,3.3c1,0,1.4-0.6,1.5-1.9l1.3,0.1
			c-0.2,2.3-1.5,3-2.9,3c-2.5,0-3.2-1.9-3.2-4.3c0-2.9,1.1-4.6,3.4-4.6c2.1,0,2.7,1.4,2.8,3.1L128,99.3z"/>
		<path d="M130.6,96.3h1.4v5.4c0,1.4,0.3,2.1,1.3,2.1c1.5,0,1.8-1.5,1.8-2.8v-4.8h1.4v8.5h-1.2l-0.1-1.2h0c-0.2,0.5-0.8,1.4-2.2,1.4
			c-1.6,0-2.4-1-2.4-3.2V96.3z"/>
		<path d="M142.4,99.1c0.1-1.4-0.2-1.8-0.8-1.8c-1.2,0-1.6,1.4-1.6,2.9v4.6h-1.4v-8.5h1.3l0,1.2h0c0.2-0.6,0.9-1.4,2-1.4
			c1.3,0,2,0.9,1.7,2.9L142.4,99.1z"/>
		<path d="M144.9,92.7h1.4v1.8h-1.4V92.7z M144.9,96.3h1.4v8.5h-1.4V96.3z"/>
		<path d="M147.6,96.3h1v-1.7l1.4-0.5v2.2h1.8v1.1H150v4.9c0,1.1,0.2,1.6,1.1,1.6c0.3,0,0.7-0.1,1-0.2l0.1,1.1
			c-0.2,0.1-0.8,0.2-1.4,0.2c-1.7,0-2.3-0.9-2.3-2.6v-5.1h-1V96.3z"/>
		<path d="M156.2,105c-0.6,2.1-1.1,3.1-2.7,3.1c-0.4,0-0.9-0.1-1.1-0.2l0.2-1c0.3,0.1,0.5,0.1,0.8,0.1c0.8,0,1.1-0.5,1.4-1.8
			l0.1-0.4l-2.5-8.5h1.5l1.7,6.8h0l1.7-6.8h1.4L156.2,105z"/>
	</g>
	<g enable-background="new    ">
		<path d="M109.4,122.4h-1.5v-12.2h3.2c2.8,0,3.6,1.6,3.6,3.5c0,2.1-0.8,4.1-4.2,4.1h-1.1V122.4z M110.3,116.6
			c1.9,0,2.8-0.8,2.8-2.8c0-1.6-0.7-2.3-2.3-2.3h-1.4v5.1H110.3z"/>
		<path d="M121.9,122.3c-0.3,0.1-0.6,0.1-0.8,0.1c-0.8,0-1.1-0.4-1.2-1.1c-0.3,0.7-1.1,1.2-2.2,1.2c-1.7,0-2.4-1.1-2.4-2.3
			c0-2.1,1.7-2.5,4.4-2.8v-0.7c0-1.6-0.6-2-1.5-2c-1.1,0-1.4,0.6-1.4,1.4c0,0.2,0,0.5,0,0.7l-1.3,0.1c0-0.3-0.1-0.6-0.1-0.8
			c0-1.5,0.9-2.5,2.8-2.5c2.6,0,2.7,2,2.7,4.1v3.2c0,0.4,0.1,0.6,0.4,0.6c0.1,0,0.2,0,0.3,0L121.9,122.3z M119.8,118.5
			c-2.4,0.1-3,0.6-3,1.6c0,0.7,0.4,1.3,1.3,1.3s1.6-0.7,1.6-1.7V118.5z"/>
		<path d="M127.2,116.6c0.1-1.4-0.2-1.8-0.8-1.8c-1.2,0-1.6,1.4-1.6,2.9v4.6h-1.4v-8.5h1.3l0,1.2h0c0.2-0.6,0.9-1.4,2-1.4
			c1.3,0,2,0.9,1.7,2.9L127.2,116.6z"/>
		<path d="M129,113.8h1v-1.7l1.4-0.5v2.2h1.8v1.1h-1.8v4.9c0,1.1,0.2,1.6,1.1,1.6c0.3,0,0.7-0.1,1-0.2l0.1,1.1
			c-0.2,0.1-0.8,0.2-1.4,0.2c-1.7,0-2.3-0.9-2.3-2.6v-5.1h-1V113.8z"/>
		<path d="M140.9,122.4h-1.4v-5.5c0-1.3-0.3-2-1.4-2c-1.5,0-1.8,1.4-1.8,2.7v4.9h-1.4v-8.5h1.3l0,1.2h0c0.2-0.5,0.8-1.4,2.2-1.4
			c1.7,0,2.4,1,2.4,3V122.4z"/>
		<path d="M148.6,119.6c-0.2,2.4-1.6,3-2.9,3c-2.5,0-3.2-1.9-3.2-4.4c0-2.8,1.1-4.5,3.4-4.5c1.9,0,2.8,1.3,2.8,3.8c0,0.3,0,0.7,0,1
			H144c0,1.7,0.3,3,1.8,3c1,0,1.5-0.6,1.6-2L148.6,119.6z M147.3,117.3c0-1.6-0.3-2.6-1.5-2.6c-1.3,0-1.7,1.2-1.7,2.6H147.3z"/>
		<path d="M154.2,116.6c0.1-1.4-0.2-1.8-0.8-1.8c-1.2,0-1.6,1.4-1.6,2.9v4.6h-1.4v-8.5h1.3l0,1.2h0c0.2-0.6,0.9-1.4,2-1.4
			c1.3,0,2,0.9,1.7,2.9L154.2,116.6z"/>
		<path d="M160.5,116.4c-0.1-1.1-0.4-1.7-1.5-1.7c-0.9,0-1.4,0.4-1.4,1.2c0,0.9,0.7,1.2,1.5,1.4c1.2,0.4,2.7,0.7,2.7,2.7
			c0,1.7-1.3,2.6-3,2.6c-1.8,0-2.7-0.8-2.9-2.7l1.3-0.1c0.1,1.2,0.4,1.8,1.6,1.8c1,0,1.5-0.5,1.5-1.3c0-1-0.8-1.3-1.8-1.6
			c-1.1-0.4-2.4-0.7-2.4-2.5c0-1.7,1.3-2.5,2.8-2.5c1.7,0,2.6,0.9,2.6,2.6L160.5,116.4z"/>
	</g>
</g>
</svg>
