<?xml version="1.0" encoding="utf-8"?>
<!-- Generator: Adobe Illustrator 18.1.0, SVG Export Plug-In . SVG Version: 6.00 Build 0)  -->
<!DOCTYPE svg PUBLIC "-//W3C//DTD SVG 1.1//EN" "http://www.w3.org/Graphics/SVG/1.1/DTD/svg11.dtd">
<svg version="1.1" id="Layer_1" xmlns="http://www.w3.org/2000/svg" xmlns:xlink="http://www.w3.org/1999/xlink" x="0px" y="0px"
	 viewBox="0 0 200 200" enable-background="new 0 0 200 200" xml:space="preserve">
<g>
	<g>
		<path fill-rule="evenodd" clip-rule="evenodd" d="M139.1,11.7c-35.6-20.5-80.7-8.9-100.8,26c-17,29.4-10.7,66,13,89L25.7,171
			c-4.9,8.5-2,19.3,6.5,24.2l1.5,0.9c8.5,4.9,19.3,2,24.2-6.5l25.6-44.3c31.8,9,66.6-3.9,83.6-33.3
			C187.2,77.1,174.7,32.2,139.1,11.7z M149.1,101.6c-14.5,25.1-47,33.5-72.6,18.7C50.8,105.5,41.8,73.2,56.3,48
			c14.5-25.1,47-33.5,72.6-18.7C154.6,44.1,163.6,76.5,149.1,101.6z"/>
	</g>
</g>
</svg>
