<?xml version="1.0" encoding="utf-8"?>
<!-- Generator: Adobe Illustrator 18.1.0, SVG Export Plug-In . SVG Version: 6.00 Build 0)  -->
<!DOCTYPE svg PUBLIC "-//W3C//DTD SVG 1.1//EN" "http://www.w3.org/Graphics/SVG/1.1/DTD/svg11.dtd">
<svg version="1.1" id="Layer_1" xmlns="http://www.w3.org/2000/svg" xmlns:xlink="http://www.w3.org/1999/xlink" x="0px" y="0px"
	 viewBox="0 0 100 52" enable-background="new 0 0 100 52" xml:space="preserve">
<g>
	<g>
		<path fill-rule="evenodd" clip-rule="evenodd" fill="#1EA3A7" d="M88,1H64c-0.6,0-1,0.4-1,1v14H39c-0.2,0-0.4,0.1-0.5,0.2
			C38.4,16.1,38.2,16,38,16H14c-0.6,0-1,0.4-1,1v24c0,0.6,0.4,1,1,1h24c0.6,0,1-0.4,1-1V27h24c0.2,0,0.4-0.1,0.5-0.2
			c0.1,0.1,0.3,0.2,0.5,0.2h24c0.6,0,1-0.4,1-1V2C89,1.4,88.6,1,88,1z M38,41H14V17h24V41z M63,26H39v-9h24V26z M88,26H64V2h24V26z"
			/>
	</g>
</g>
<g opacity="0.2">
	<g>
		<g>
			<g>
				<line fill="none" stroke="#1EA3A7" stroke-miterlimit="10" x1="0" y1="16.5" x2="2" y2="16.5"/>
				
					<line fill="none" stroke="#1EA3A7" stroke-miterlimit="10" stroke-dasharray="3.84,3.84" x1="5.8" y1="16.5" x2="96.1" y2="16.5"/>
				<line fill="none" stroke="#1EA3A7" stroke-miterlimit="10" x1="98" y1="16.5" x2="100" y2="16.5"/>
			</g>
		</g>
	</g>
	<g>
		<g>
			<g>
				<line fill="none" stroke="#1EA3A7" stroke-miterlimit="10" x1="0" y1="26.5" x2="2" y2="26.5"/>
				
					<line fill="none" stroke="#1EA3A7" stroke-miterlimit="10" stroke-dasharray="3.84,3.84" x1="5.8" y1="26.5" x2="96.1" y2="26.5"/>
				<line fill="none" stroke="#1EA3A7" stroke-miterlimit="10" x1="98" y1="26.5" x2="100" y2="26.5"/>
			</g>
		</g>
	</g>
	<g>
		<g>
			<g>
				<line fill="none" stroke="#1EA3A7" stroke-miterlimit="10" x1="55.5" y1="0" x2="55.5" y2="2"/>
				
					<line fill="none" stroke="#1EA3A7" stroke-miterlimit="10" stroke-dasharray="3.6923,3.6923" x1="55.5" y1="5.7" x2="55.5" y2="48.2"/>
				<line fill="none" stroke="#1EA3A7" stroke-miterlimit="10" x1="55.5" y1="50" x2="55.5" y2="52"/>
			</g>
		</g>
	</g>
	<g>
		<g>
			<g>
				<line fill="none" stroke="#1EA3A7" stroke-miterlimit="10" x1="46" y1="0" x2="46" y2="2"/>
				
					<line fill="none" stroke="#1EA3A7" stroke-miterlimit="10" stroke-dasharray="3.6923,3.6923" x1="46" y1="5.7" x2="46" y2="48.2"/>
				<line fill="none" stroke="#1EA3A7" stroke-miterlimit="10" x1="46" y1="50" x2="46" y2="52"/>
			</g>
		</g>
	</g>
</g>
</svg>
