<?xml version="1.0" encoding="utf-8"?>
<!-- Generator: Adobe Illustrator 17.1.0, SVG Export Plug-In . SVG Version: 6.00 Build 0)  -->
<!DOCTYPE svg PUBLIC "-//W3C//DTD SVG 1.1//EN" "http://www.w3.org/Graphics/SVG/1.1/DTD/svg11.dtd">
<svg version="1.1" id="Layer_1" xmlns="http://www.w3.org/2000/svg" xmlns:xlink="http://www.w3.org/1999/xlink" x="0px" y="0px"
	 viewBox="0 0 240 60" enable-background="new 0 0 240 60" xml:space="preserve">
<circle fill="#DA4501" cx="30" cy="30" r="30"/>
<path fill="#FC5001" d="M60,30c-15,0-30,0-30,0s0-15,0-30C46.6,0,60,13.4,60,30z"/>
<circle fill="#DA4501" cx="90" cy="30" r="30"/>
<path fill="#FC5001" d="M120,30c-15,0-30,0-30,0s0-15,0-30C106.6,0,120,13.4,120,30z"/>
<path fill="#FC5001" d="M120,30c-15,0-30,0-30,0s0,15,0,30C106.6,60,120,46.6,120,30z"/>
<circle fill="#DA4501" cx="150" cy="30" r="30"/>
<path fill="#FC5001" d="M180,30c-15,0-30,0-30,0s0-15,0-30C166.6,0,180,13.4,180,30z"/>
<circle fill="#FC5001" cx="210" cy="30" r="30"/>
<path fill="#FC5001" d="M180,30c-15,0-30,0-30,0s0,15,0,30C166.6,60,180,46.6,180,30z"/>
<path fill="#FC5001" d="M150,60c0-15,0-30,0-30s-15,0-30,0C120,46.6,133.4,60,150,60z"/>
</svg>
